<svg width="25" height="25" viewBox="0 0 25 25" fill="none" xmlns="http://www.w3.org/2000/svg">
<circle cx="12.3438" cy="12.3438" r="12.3438" fill="#6B6B6B"/>
<path d="M15.1824 12.1186H13.425L13.425 18.5583H10.7618V12.1186H9.49512L9.49512 9.85503H10.7618V8.39258C10.7331 8.03242 10.783 7.67034 10.9079 7.33132C11.0328 6.9923 11.2297 6.68441 11.4851 6.4289C11.7406 6.17339 12.0484 5.97633 12.3874 5.85134C12.7264 5.72635 13.0884 5.67639 13.4486 5.70491L15.4213 5.71303V7.90672H13.9897C13.9096 7.90196 13.8294 7.91506 13.7549 7.94508C13.6805 7.9751 13.6136 8.02128 13.5592 8.08029C13.5048 8.1393 13.4642 8.20966 13.4402 8.28629C13.4163 8.36292 13.4098 8.4439 13.421 8.52339V9.85503H15.4164L15.1824 12.1186Z" fill="white"/>
</svg>
