<svg width="16" height="16" viewBox="0 0 16 16" fill="none" xmlns="http://www.w3.org/2000/svg">
    <path d="M7.00908 10.4465C7.1337 10.5819 7.30799 10.6607 7.49185 10.6649L13.8537 2.91313L13.7478 2.80693L13.7477 2.80702L7.52843 9.00986L5.35037 6.64428L5.35034 6.64425C5.0969 6.36914 4.66843 6.35133 4.39293 6.60468L4.39288 6.60472C4.11749 6.8582 4.09991 7.28691 4.35331 7.56223L4.35333 7.56225L7.00908 10.4465ZM7.00908 10.4465L7.11947 10.3449L7.00912 10.4465L7.00908 10.4465ZM14.706 2.80808L14.7059 2.80803L7.50708 10.6651H7.50764C7.68679 10.6651 7.85904 10.594 7.98602 10.4675L7.98607 10.4674L14.7046 3.76649C14.7046 3.76648 14.7047 3.76647 14.7047 3.76645C14.9698 3.50215 14.9702 3.073 14.706 2.80808Z" fill="#D32907" stroke="#D32907" stroke-width="0.3"/>
    <path d="M14.4723 7.32235C14.0981 7.32235 13.7947 7.62571 13.7947 8C13.7947 11.1952 11.1952 13.7947 8 13.7947C4.80498 13.7947 2.20528 11.1952 2.20528 8C2.20528 4.80498 4.80498 2.20528 8 2.20528C8.37426 2.20528 8.67765 1.90193 8.67765 1.52765C8.67765 1.15335 8.37427 0.85 8 0.85C4.05731 0.85 0.85 4.05731 0.85 8C0.85 11.9425 4.05731 15.15 8 15.15C11.9425 15.15 15.15 11.9425 15.15 8C15.15 7.62573 14.8467 7.32235 14.4723 7.32235Z" fill="#D32907" stroke="#D32907" stroke-width="0.3"/>
</svg>
