<svg width="26" height="25" viewBox="0 0 26 25" fill="none" xmlns="http://www.w3.org/2000/svg">
<circle cx="12.7188" cy="12.3438" r="12.3438" fill="#6B6B6B"/>
<path d="M15.4531 18.1928H9.16727C8.75917 18.1928 8.35509 18.1121 7.9783 17.9554C7.6015 17.7986 7.25941 17.5689 6.97173 17.2795C6.68404 16.99 6.45643 16.6465 6.30199 16.2688C6.14755 15.891 6.06933 15.4865 6.07184 15.0784V8.79255C6.07184 7.97159 6.39796 7.18425 6.97847 6.60374C7.55897 6.02324 8.34631 5.69711 9.16727 5.69711H15.4531C16.274 5.69711 17.0614 6.02324 17.6419 6.60374C18.2224 7.18425 18.5485 7.97159 18.5485 8.79255V15.0784C18.551 15.4865 18.4728 15.891 18.3184 16.2688C18.1639 16.6465 17.9363 16.99 17.6486 17.2795C17.3609 17.5689 17.0189 17.7986 16.6421 17.9554C16.2653 18.1121 15.8612 18.1928 15.4531 18.1928ZM9.16727 7.59615C8.85073 7.59863 8.54787 7.72548 8.32403 7.94931C8.1002 8.17314 7.97336 8.47601 7.97087 8.79255V15.0784C7.97336 15.3949 8.1002 15.6978 8.32403 15.9216C8.54787 16.1454 8.85073 16.2723 9.16727 16.2748H15.4531C15.6114 16.276 15.7685 16.2461 15.9153 16.1866C16.0621 16.1272 16.1957 16.0394 16.3086 15.9283C16.4214 15.8172 16.5113 15.685 16.5731 15.5391C16.6348 15.3933 16.6672 15.2367 16.6685 15.0784V8.79255C16.6672 8.63419 16.6348 8.47762 16.5731 8.33179C16.5113 8.18596 16.4214 8.05372 16.3086 7.94262C16.1957 7.83153 16.0621 7.74375 15.9153 7.6843C15.7685 7.62485 15.6114 7.5949 15.4531 7.59615H9.16727Z" fill="white"/>
<path d="M12.3198 14.1288C11.8798 14.1345 11.4482 14.0088 11.0801 13.7679C10.7119 13.527 10.4239 13.1817 10.253 12.7763C10.082 12.3709 10.0358 11.9238 10.1202 11.492C10.2047 11.0602 10.416 10.6634 10.7271 10.3522C11.0382 10.0411 11.435 9.82985 11.8668 9.7454C12.2986 9.66094 12.7458 9.70715 13.1512 9.87812C13.5566 10.0491 13.9018 10.3371 14.1427 10.7052C14.3836 11.0734 14.5093 11.505 14.5037 11.9449C14.4963 12.5218 14.2638 13.0731 13.8559 13.481C13.4479 13.889 12.8967 14.1215 12.3198 14.1288ZM12.3198 10.6536C12.0701 10.648 11.8244 10.7166 11.6137 10.8507C11.403 10.9848 11.2368 11.1783 11.136 11.4068C11.0353 11.6354 11.0046 11.8886 11.0478 12.1346C11.091 12.3806 11.2062 12.6082 11.3787 12.7888C11.5513 12.9693 11.7735 13.0946 12.0173 13.1488C12.2611 13.2031 12.5155 13.1838 12.7483 13.0935C12.9812 13.0032 13.182 12.8459 13.3254 12.6414C13.4689 12.437 13.5485 12.1946 13.5542 11.9449C13.5567 11.6141 13.4284 11.2958 13.1971 11.0592C12.9659 10.8226 12.6505 10.6871 12.3198 10.6821V10.6536Z" fill="white"/>
<path d="M15.5865 15.2018C15.8592 15.2018 16.0803 14.9808 16.0803 14.7081C16.0803 14.4354 15.8592 14.2143 15.5865 14.2143C15.3138 14.2143 15.0928 14.4354 15.0928 14.7081C15.0928 14.9808 15.3138 15.2018 15.5865 15.2018Z" fill="white"/>
</svg>
