<svg width="44" height="42" viewBox="0 0 44 42" fill="none" xmlns="http://www.w3.org/2000/svg">
<path d="M31.5201 25.7488C30.5775 25.2023 29.9417 24.183 29.9417 23.0173V15.9543C29.9417 12.9879 27.7485 10.5244 24.8985 10.0996V8.89623C24.8984 7.29926 23.5992 6 22.0022 6C20.4053 6 19.106 7.29926 19.106 8.89623V10.0996C16.256 10.5244 14.0628 12.9879 14.0628 15.9543V23.0173C14.0628 24.183 13.427 25.2024 12.4844 25.7488H31.5201Z" fill="#898989"/>
<path d="M10.0273 27.5066V31.9655H19.1052V33.1039C19.1052 34.7008 20.4044 36 22.0014 36C23.5984 36 24.8976 34.7008 24.8976 33.1038V31.9654H33.9755V27.5066H10.0273V27.5066Z" fill="#898989"/>
<circle cx="32" cy="6" r="3" fill="#D32907"/>
</svg>
