<svg width="30" height="26" viewBox="0 0 30 26" fill="none" xmlns="http://www.w3.org/2000/svg">
    <path d="M25.6203 13.713H23.3047C23.5407 14.3592 23.6697 15.0566 23.6697 15.7835V24.5354C23.6697 24.8384 23.6169 25.1293 23.521 25.3999H27.3493C28.7793 25.3999 29.9427 24.2364 29.9427 22.8064V18.0354C29.9428 15.652 28.0037 13.713 25.6203 13.713Z" fill="#D32907"/>
    <path d="M6.2731 15.7835C6.2731 15.0566 6.40205 14.3592 6.63808 13.713H4.32242C1.93904 13.713 0 15.652 0 18.0354V22.8065C0 24.2365 1.16339 25.3999 2.59345 25.3999H6.42182C6.32585 25.1293 6.2731 24.8384 6.2731 24.5354V15.7835Z" fill="#D32907"/>
    <path d="M17.6163 11.4611H12.3224C9.93904 11.4611 8 13.4001 8 15.7835V24.5353C8 25.0127 8.38704 25.3998 8.86448 25.3998H21.0743C21.5517 25.3998 21.9388 25.0128 21.9388 24.5353V15.7835C21.9388 13.4001 19.9997 11.4611 17.6163 11.4611Z" fill="#D32907"/>
    <path d="M14.9717 0C12.1054 0 9.77344 2.33192 9.77344 5.19831C9.77344 7.14255 10.8465 8.84058 12.4313 9.73209C13.183 10.1549 14.0495 10.3966 14.9717 10.3966C15.8938 10.3966 16.7604 10.1549 17.5121 9.73209C19.0969 8.84058 20.1699 7.14249 20.1699 5.19831C20.1699 2.33198 17.838 0 14.9717 0Z" fill="#D32907"/>
    <path d="M5.84464 4.84509C3.70097 4.84509 1.95703 6.58903 1.95703 8.7327C1.95703 10.8764 3.70097 12.6203 5.84464 12.6203C6.3884 12.6203 6.90621 12.5077 7.37658 12.3052C8.18983 11.9551 8.86039 11.3353 9.27532 10.5589C9.56656 10.014 9.73224 9.39244 9.73224 8.7327C9.73224 6.58909 7.9883 4.84509 5.84464 4.84509Z" fill="#D32907"/>
    <path d="M24.0985 4.84509C21.9549 4.84509 20.2109 6.58903 20.2109 8.7327C20.2109 9.39249 20.3766 10.0141 20.6679 10.5589C21.0828 11.3353 21.7533 11.9551 22.5666 12.3052C23.037 12.5077 23.5548 12.6203 24.0985 12.6203C26.2422 12.6203 27.9861 10.8764 27.9861 8.7327C27.9861 6.58903 26.2422 4.84509 24.0985 4.84509Z" fill="#D32907"/>
</svg>
