<svg width="40" height="30" viewBox="0 0 40 30" fill="none" xmlns="http://www.w3.org/2000/svg">
    <path d="M39.2337 6.92529V1.14943C39.2337 0.514636 38.7191 0 38.0843 0H1.14943C0.514636 0 0 0.514636 0 1.14943V6.92529H39.2337Z" fill="#D32907"/>
    <path d="M17.3074 16.159H21.9243C22.5634 16.159 23.0833 15.6391 23.0833 15C23.0833 14.3609 22.5634 13.841 21.9243 13.841H17.3074C16.6684 13.841 16.1484 14.3609 16.1484 15C16.1484 15.6391 16.6684 16.159 17.3074 16.159Z" fill="#D32907"/>
    <path d="M2.30469 9.22412V28.8506C2.30469 29.4853 2.81932 30 3.45411 30H35.7721C36.4069 30 36.9215 29.4853 36.9215 28.8506V9.22412H2.30469ZM17.3047 11.5421H21.9215C23.8282 11.5421 25.3794 13.0933 25.3794 15C25.3794 16.9066 23.8282 18.4578 21.9215 18.4578H17.3047C15.398 18.4578 13.8468 16.9066 13.8468 15C13.8468 13.0933 15.398 11.5421 17.3047 11.5421Z" fill="#D32907"/>
</svg>
