<svg width="30" height="30" viewBox="0 0 30 30" fill="none" xmlns="http://www.w3.org/2000/svg">
<circle cx="15" cy="15" r="15" fill="#ECEFF1"/>
<path d="M20.025 19.5585C16.5375 21.1397 13.1625 21.2115 9.97498 19.5585C9.97498 17.5103 11.1375 15.7136 12.8625 14.8871C13.425 15.3542 14.175 15.6417 15 15.6417C15.825 15.6417 16.575 15.3542 17.1375 14.8871C18.825 15.7495 20.025 17.5103 20.025 19.5585Z" fill="#5E6072"/>
<path d="M14.9999 14.9589C16.4289 14.9589 17.5874 13.8488 17.5874 12.4795C17.5874 11.1101 16.4289 10 14.9999 10C13.5709 10 12.4124 11.1101 12.4124 12.4795C12.4124 13.8488 13.5709 14.9589 14.9999 14.9589Z" fill="#5E6072"/>
<path d="M24 19.1564C22.8375 19.6954 21.675 19.9829 20.55 20.0547C20.1375 18.5096 19.0875 17.1441 17.6625 16.3894C17.775 16.2816 17.85 16.1379 17.925 15.9942C18.1125 15.8504 18.3375 15.7067 18.5625 15.5989C19.0125 15.9582 19.575 16.1738 20.175 16.1738C20.8125 16.1738 21.375 15.9582 21.7875 15.5989C23.1 16.2457 24 17.6112 24 19.1564Z" fill="#5E6072"/>
<path d="M22.1624 13.7661C22.1624 14.8082 21.2999 15.6347 20.2124 15.6347C19.3124 15.6347 18.5625 15.0598 18.3375 14.2692C18.3375 14.1255 18.3 13.9817 18.2625 13.838V13.8021C18.2625 12.76 19.125 11.9335 20.2124 11.9335C21.2999 11.9335 22.1624 12.724 22.1624 13.7661Z" fill="#5E6072"/>
<path d="M12.3375 16.4971C10.9125 17.2517 9.86249 18.6172 9.45 20.1624C8.25 20.1265 7.125 19.8031 6 19.2281C6 17.6829 6.9 16.3174 8.175 15.7065C8.625 16.0659 9.1875 16.2815 9.7875 16.2815C10.3875 16.2815 10.9875 16.0659 11.4 15.7065C11.625 15.8143 11.85 15.9581 12.0375 16.1018C12.15 16.2456 12.225 16.3534 12.3375 16.4971Z" fill="#5E6072"/>
<path d="M11.7751 13.838V13.8739C11.7376 14.0177 11.7376 14.1614 11.7001 14.3051C11.4751 15.0957 10.7251 15.6706 9.82506 15.6706C8.73756 15.6706 7.87506 14.8442 7.87506 13.8021C7.87506 12.76 8.73756 11.9335 9.82506 11.9335C10.9126 11.9335 11.7751 12.7959 11.7751 13.838Z" fill="#5E6072"/>
</svg>
