<svg width="30" height="23" viewBox="0 0 30 23" fill="none" xmlns="http://www.w3.org/2000/svg">
    <path d="M8.73195 6.55028V18.7148H1.24609V6.55028C1.24609 5.6894 1.94477 4.99072 2.80565 4.99072H7.1724C8.03327 4.99072 8.73195 5.6894 8.73195 6.55028Z" fill="#D32907"/>
    <path d="M18.7163 1.55955V18.7146H11.2305V1.55955C11.2305 0.69868 11.9291 0 12.79 0H17.1568C18.0176 0 18.7163 0.69868 18.7163 1.55955Z" fill="#D32907"/>
    <path d="M28.6968 10.2932V18.7148H21.2109V10.2932C21.2109 9.43232 21.9096 8.73364 22.7705 8.73364H27.1372C27.9981 8.73364 28.6968 9.43232 28.6968 10.2932Z" fill="#D32907"/>
    <path d="M29.0077 22.4575H0.935732C0.419208 22.4575 0 22.0383 0 21.5218C0 21.0053 0.419208 20.5861 0.935732 20.5861H29.0077C29.5242 20.5861 29.9434 21.0053 29.9434 21.5218C29.9434 22.0383 29.5242 22.4575 29.0077 22.4575Z" fill="#D32907"/>
</svg>
