<svg width="35" height="35" viewBox="0 0 35 35" fill="none" xmlns="http://www.w3.org/2000/svg">
    <rect width="35" height="35" fill="#D32907"/>
    <path d="M28.2773 7.43567C28.2773 6.88338 27.8296 6.43567 27.2773 6.43567L18.2773 6.43567C17.7251 6.43567 17.2773 6.88338 17.2773 7.43567C17.2773 7.98795 17.7251 8.43567 18.2773 8.43567L26.2773 8.43567L26.2773 16.4357C26.2773 16.988 26.7251 17.4357 27.2773 17.4357C27.8296 17.4357 28.2773 16.988 28.2773 16.4357L28.2773 7.43567ZM6.98601 26.727C6.98601 27.2793 7.43372 27.727 7.98601 27.727L16.986 27.727C17.5383 27.727 17.986 27.2793 17.986 26.727C17.986 26.1747 17.5383 25.727 16.986 25.727L8.98601 25.727L8.98601 17.727C8.98601 17.1747 8.53829 16.727 7.98601 16.727C7.43372 16.727 6.98601 17.1747 6.98601 17.727L6.98601 26.727ZM26.5702 6.72856L7.2789 26.0199L8.69311 27.4341L27.9845 8.14278L26.5702 6.72856Z" fill="white"/>
</svg>
