<svg width="26" height="27" viewBox="0 0 26 27" fill="none" xmlns="http://www.w3.org/2000/svg">
    <path d="M20.8694 12.6385H22.2305H23.5916V13.5135H22.2305V17.0133H25.86V10.8885H19.0547C19.0547 11.855 19.8672 12.6385 20.8694 12.6385Z" fill="#D32907"/>
    <path d="M3.35551 6.99212C3.35551 5.98469 4.18697 5.16491 5.20873 5.16491C6.2305 5.16491 7.06195 5.98469 7.06195 6.99212C7.06195 7.16066 7.03827 7.32665 6.99306 7.48585H10.8885V0H0V7.48586H3.42441C3.3792 7.32666 3.35551 7.16066 3.35551 6.99212Z" fill="#D32907"/>
    <path d="M22.4588 7.48586V0H11.5703V7.48586H15.3715C15.3274 7.32666 15.3043 7.16066 15.3043 6.99212C15.3043 5.9847 16.1157 5.16492 17.1129 5.16492C18.1101 5.16492 18.9215 5.9847 18.9215 6.99212C18.9215 7.16066 18.8984 7.32666 18.8543 7.48586H22.4588Z" fill="#D32907"/>
    <path d="M7.06195 19.0841C7.06195 20.0876 6.2305 20.9041 5.20873 20.9041C4.18697 20.9041 3.35552 20.0876 3.35552 19.0841C3.35552 19.0744 3.35552 19.0647 3.35595 19.0549H0V26.5408H10.8885V19.0549H7.06152C7.06195 19.0647 7.06195 19.0744 7.06195 19.0841Z" fill="#D32907"/>
    <path d="M18.9215 19.5467C18.9215 20.5502 18.1101 21.3667 17.1129 21.3667C16.1157 21.3667 15.3043 20.5502 15.3043 19.5467C15.3043 19.3788 15.3274 19.2135 15.3715 19.0549H11.5703V26.5408H22.4588V19.0549H18.8543C18.8984 19.2135 18.9215 19.3788 18.9215 19.5467Z" fill="#D32907"/>
    <path d="M8.5341 13.1638C8.5341 12.1497 9.36555 11.3245 10.3878 11.3245C10.5587 11.3245 10.727 11.348 10.8885 11.3929V8.46115H6.25849C6.0841 8.46115 5.92608 8.35901 5.85546 8.20088C5.78485 8.04276 5.81456 7.85771 5.93168 7.7295C6.09185 7.55428 6.18012 7.32693 6.18012 7.08888C6.18012 6.55725 5.74438 6.12476 5.20874 6.12476C4.6731 6.12476 4.23735 6.55725 4.23735 7.08888C4.23735 7.32693 4.32562 7.55428 4.4858 7.7295C4.60291 7.85771 4.63262 8.04276 4.56201 8.20088C4.49139 8.35901 4.33337 8.46115 4.15899 8.46115H0V17.8666H3.88125C4.02679 17.8666 4.16285 17.9379 4.24509 18.0572C4.32734 18.1764 4.34499 18.3281 4.29203 18.4631C4.25586 18.5555 4.23734 18.6593 4.23734 18.7713C4.23734 19.3029 4.67309 19.7354 5.20873 19.7354C5.74437 19.7354 6.18012 19.3029 6.18012 18.7713C6.18012 18.6593 6.1616 18.555 6.12544 18.4619C6.07291 18.3272 6.09099 18.1755 6.1728 18.0567C6.25504 17.9375 6.3911 17.8666 6.53664 17.8666H10.8885V14.9348C10.7271 14.9797 10.5587 15.0032 10.3878 15.0032C9.36555 15.0032 8.5341 14.178 8.5341 13.1638Z" fill="#D32907"/>
    <path d="M11.7804 18.0442H16.2108C16.3777 18.0442 16.5289 18.1479 16.5965 18.3084C16.664 18.4689 16.6356 18.6568 16.5235 18.7869C16.3702 18.9648 16.2858 19.1956 16.2858 19.4372C16.2858 19.9769 16.7028 20.4159 17.2154 20.4159C17.7279 20.4159 18.1449 19.9769 18.1449 19.4372C18.1449 19.1956 18.0605 18.9648 17.9072 18.7869C17.7951 18.6568 17.7667 18.4689 17.8343 18.3084C17.9018 18.1479 18.053 18.0442 18.2199 18.0442H21.6136V13.7298H21.1916C19.7956 13.7298 18.66 12.5341 18.66 11.0643V10.1758H22.4575V8.4965H18.2199C18.0531 8.4965 17.9018 8.39281 17.8343 8.23229C17.7667 8.07178 17.7951 7.88393 17.9072 7.75378C18.0605 7.57591 18.1449 7.34512 18.1449 7.10347C18.1449 6.56379 17.728 6.12476 17.2154 6.12476C16.7028 6.12476 16.2858 6.56379 16.2858 7.10347C16.2858 7.34512 16.3703 7.57591 16.5235 7.75378C16.6356 7.88393 16.664 8.07178 16.5965 8.23229C16.5289 8.39281 16.3777 8.4965 16.2108 8.4965H11.7804V12.2127C11.7804 12.3884 11.682 12.5476 11.5295 12.6187C11.3779 12.6894 11.1994 12.6599 11.0754 12.5419C10.9061 12.3806 10.6864 12.2916 10.4573 12.2916C9.94434 12.2916 9.52734 12.7307 9.52734 13.2703C9.52734 13.81 9.94434 14.2491 10.4573 14.2491C10.6864 14.2491 10.9061 14.1601 11.0754 13.9987C11.1994 13.8803 11.3779 13.8512 11.5295 13.9219C11.682 13.9931 11.7804 14.1523 11.7804 14.328V18.0442H11.7804Z" fill="#D32907"/>
</svg>
