<svg width="30" height="30" viewBox="0 0 30 30" fill="none" xmlns="http://www.w3.org/2000/svg">
    <path d="M11.25 15C11.25 12.9325 12.9325 11.25 15 11.25H20V1.24998C20 0.559982 19.4413 0 18.75 0H1.24998C0.558751 0 0 0.559982 0 1.24998V28.75C0 29.44 0.558751 30 1.24998 30H18.75C19.4413 30 20 29.44 20 28.75V20V18.75H15C12.9325 18.75 11.25 17.0675 11.25 15Z" fill="#D32907"/>
    <path d="M29.7188 15.7893C29.7226 15.7847 29.7258 15.7797 29.7295 15.775C29.7509 15.748 29.7717 15.7204 29.7909 15.6915C29.7999 15.678 29.8075 15.664 29.816 15.6502C29.8286 15.6295 29.8416 15.609 29.853 15.5876C29.8624 15.57 29.8704 15.5518 29.8789 15.5339C29.8876 15.5153 29.897 15.4971 29.9049 15.478C29.9134 15.4575 29.9203 15.4366 29.9276 15.4158C29.9337 15.3985 29.9404 15.3815 29.9458 15.3639C29.9532 15.3394 29.9589 15.3146 29.9648 15.2898C29.9683 15.2753 29.9725 15.261 29.9755 15.2463C29.9823 15.2123 29.9871 15.178 29.9911 15.1436C29.9918 15.1377 29.993 15.132 29.9936 15.126C30.0021 15.042 30.0021 14.9572 29.9936 14.8732C29.993 14.8672 29.9918 14.8615 29.9911 14.8556C29.9871 14.8212 29.9823 14.7869 29.9755 14.7529C29.9725 14.7381 29.9683 14.7239 29.9648 14.7094C29.9589 14.6846 29.9532 14.6597 29.9458 14.6353C29.9404 14.6177 29.9337 14.6007 29.9276 14.5834C29.9202 14.5626 29.9134 14.5416 29.9049 14.5212C29.897 14.5021 29.8877 14.4838 29.8789 14.4653C29.8704 14.4473 29.8624 14.4292 29.853 14.4116C29.8415 14.3902 29.8286 14.3696 29.816 14.349C29.8075 14.3352 29.7999 14.3211 29.7909 14.3077C29.7717 14.2788 29.7509 14.2512 29.7295 14.2242C29.7258 14.2195 29.7226 14.2145 29.7188 14.2099C29.6907 14.1753 29.6608 14.1424 29.6291 14.1111L24.6338 9.11577C24.145 8.62704 23.355 8.62704 22.8663 9.11577C22.3775 9.6045 22.3775 10.3945 22.8663 10.8833L25.7325 13.7495H15C14.3088 13.7495 13.75 14.3095 13.75 14.9995C13.75 15.6895 14.3088 16.2495 15 16.2495H25.7325L22.8663 19.1157C22.3775 19.6044 22.3775 20.3944 22.8663 20.8832C23.11 21.1269 23.43 21.2494 23.75 21.2494C24.07 21.2494 24.3901 21.1269 24.6338 20.8832L29.6292 15.8878C29.6607 15.8568 29.6906 15.8238 29.7188 15.7893Z" fill="#D32907"/>
</svg>
