<svg width="32" height="30" viewBox="0 0 32 30" fill="none" xmlns="http://www.w3.org/2000/svg">
    <path d="M10.8621 24.3105L0 18.6208L1.55172 22.2415L0 24.3105L1.55172 26.3794L0 30.0001L10.8621 24.3105Z" fill="#D32907"/>
    <path d="M23.2755 2.58621C26.1321 2.58621 28.4479 4.90195 28.4479 7.75862C28.4479 10.6153 26.1321 12.931 23.2755 12.931C20.5935 12.931 18.3888 10.8896 18.1292 8.27586H15.543C15.8103 12.3185 19.1651 15.5172 23.2755 15.5172C27.5605 15.5172 31.0341 12.0436 31.0341 7.75862C31.0341 3.47364 27.5605 0 23.2755 0C19.1651 0 15.8103 3.19869 15.543 7.24138H18.1292C18.3888 4.62761 20.5935 2.58621 23.2755 2.58621Z" fill="#D32907"/>
    <path d="M21.8761 6.57255L22.6075 5.84114L24.5249 7.75857L22.6075 9.676L21.8761 8.94459L22.5449 8.27581H20.7422C20.9819 9.45624 22.0251 10.3448 23.2763 10.3448C24.7046 10.3448 25.8625 9.18689 25.8625 7.75857C25.8625 6.33025 24.7046 5.17236 23.2763 5.17236C22.0251 5.17236 20.9819 6.0609 20.7422 7.24133H22.5449L21.8761 6.57255Z" fill="#D32907"/>
    <path d="M20.6878 7.75854C20.6878 7.58137 20.706 7.40846 20.7399 7.2413H18.1277C18.1108 7.41146 18.1016 7.58393 18.1016 7.75854C18.1016 7.93316 18.1108 8.10562 18.1277 8.27579H20.7399C20.706 8.10862 20.6878 7.93571 20.6878 7.75854Z" fill="#D32907"/>
    <path d="M11.529 9.67608L12.9291 8.27589H15.5415C15.5301 8.10415 15.5154 7.93326 15.5154 7.75865C15.5154 7.58403 15.5301 7.41314 15.5415 7.24141H12.9291L11.529 5.84122L10.7975 6.57263L11.4663 7.24141H9.35291C6.35806 7.24141 3.92188 9.67784 3.92188 12.6724C3.92188 15.667 6.35806 18.1035 9.35291 18.1035H15.087L16.4872 19.5037L17.2186 18.7723L16.5498 18.1035H27.1533C28.7217 18.1035 29.9981 19.3797 29.9981 20.9483C29.9981 22.5169 28.7217 23.7931 27.1533 23.7931H21.7222L20.3221 22.3929L19.5907 23.1244L20.2594 23.7931H11.8947V24.8276H20.2594L19.5907 25.4964L20.3221 26.2278L21.7222 24.8276H27.1533C29.2925 24.8276 31.0326 23.0875 31.0326 20.9483C31.0326 18.8091 29.2925 17.069 27.1533 17.069H16.5498L17.2186 16.4002L16.4872 15.6688L15.087 17.069H9.35291C6.92885 17.069 4.95636 15.0968 4.95636 12.6724C4.95636 10.2481 6.92885 8.27589 9.35291 8.27589H11.4663L10.7975 8.94467L11.529 9.67608Z" fill="#D32907"/>
</svg>
