<svg width="25" height="25" viewBox="0 0 25 25" fill="none" xmlns="http://www.w3.org/2000/svg">
<circle cx="12.4063" cy="12.3438" r="12.3438" fill="#6B6B6B"/>
<path d="M18.1828 8.70106C17.753 8.89154 17.297 9.01643 16.8301 9.07153C17.3215 8.77811 17.6897 8.31617 17.866 7.77163C17.4037 8.045 16.8981 8.23734 16.371 8.34034C16.0162 7.9621 15.5465 7.71149 15.0347 7.62737C14.523 7.54325 13.9977 7.63032 13.5405 7.87508C13.0833 8.11983 12.7196 8.50861 12.5058 8.98111C12.292 9.4536 12.2401 9.98343 12.3582 10.4884C11.4218 10.4416 10.5057 10.1982 9.66949 9.77428C8.83328 9.35031 8.09561 8.75518 7.5044 8.02754C7.20314 8.54623 7.11106 9.16028 7.24694 9.74451C7.38281 10.3287 7.73641 10.8392 8.23564 11.1717C7.86156 11.1602 7.49572 11.059 7.16885 10.8768C7.16885 10.8865 7.16885 10.8971 7.16885 10.9068C7.16919 11.4506 7.35765 11.9776 7.70225 12.3983C8.04685 12.819 8.52638 13.1075 9.05949 13.215C8.71268 13.3092 8.34894 13.3231 7.99595 13.2556C8.14619 13.7235 8.43899 14.1327 8.83337 14.426C9.22775 14.7192 9.70396 14.8818 10.1953 14.891C9.20733 15.6631 7.95421 16.0136 6.70898 15.866C7.72108 16.5143 8.88903 16.8783 10.0903 16.9198C11.2915 16.9612 12.4818 16.6786 13.5362 16.1016C14.5906 15.5246 15.4702 14.6744 16.0828 13.6403C16.6954 12.6062 17.0183 11.4263 17.0177 10.2244C17.0177 10.122 17.0177 10.0205 17.0112 9.91972C17.4723 9.58671 17.8702 9.174 18.1861 8.70106H18.1828Z" fill="white"/>
</svg>
